# xmcd
#
# Track frame offsets: 
#        150
#        35371
#        65103
#        97510
#        124708
#        145895
#        169866
#        190045
#        224847
#        255094
#        297005
#
# Disc length: 4506 seconds
#
# Revision: 0
# Processed by: cddbd v1.5.2PL0 Copyright (c) Steve Scherf et al.
# Submitted via: ExactAudioCopy v0.99pb5
#
DISCID=9a11980b
DTITLE=Various Artist - Global Communication - Back In The Box (Unmixed) [CD 
DTITLE=1)
DYEAR=2011
DGENRE=Techno
TTITLE0=Urban Tribe - Covert Action
TTITLE1=808 State - Sunrise
TTITLE2=States Of Mind - Audio Q5A
TTITLE3=Shake - Sonar 123
TTITLE4=Never On Sunday - The Journey
TTITLE5=F.U.S.E. - Technotropic
TTITLE6=Neuropolitique - Mind You Don't Trip
TTITLE7=System 7 and Derrick May - Altitude (Mayday Mix)
TTITLE8=BFC - Galaxy
TTITLE9=Florence - A Touch Of Heaven
TTITLE10=Aphex Twin - Tha
EXTD=
EXTT0=
EXTT1=
EXTT2=
EXTT3=
EXTT4=
EXTT5=
EXTT6=
EXTT7=
EXTT8=
EXTT9=
EXTT10=
PLAYORDER=
